<svg id="Layer_1" data-name="Layer 1" xmlns="http://www.w3.org/2000/svg" viewBox="0 0 338 384"><defs><style>.cls-1{fill:#8b51a0;}.cls-2{fill:none;stroke:#4d4d4d;stroke-width:4.77px;}.cls-3{fill:#fff;}</style></defs><g id="Ellipse_425" data-name="Ellipse 425"><circle class="cls-1" cx="158.62" cy="190.23" r="106.38"/><circle class="cls-2" cx="158.62" cy="190.23" r="104"/></g><g id="online-learning"><circle id="Ellipse_4" data-name="Ellipse 4" class="cls-3" cx="161.84" cy="227.81" r="2.27"/><path id="Path_27" data-name="Path 27" class="cls-3" d="M199,159.32l-36.26-15.87a2.28,2.28,0,0,0-1.81,0l-36.26,15.86a2.3,2.3,0,0,0-1.38,2.08v14a6.83,6.83,0,0,0-4.53,6.42v9.06a2.26,2.26,0,0,0,2.26,2.27h9.07a2.26,2.26,0,0,0,2.26-2.27V181.8a6.79,6.79,0,0,0-4.53-6.41V164.86l13.6,5.95v15.52a2.26,2.26,0,0,0,1.35,2.07,56.82,56.82,0,0,0,19.05,4.73,56.87,56.87,0,0,0,19.06-4.73,2.26,2.26,0,0,0,1.34-2.07V170.81L199,163.47a2.26,2.26,0,0,0,1.17-3,2.3,2.3,0,0,0-1.17-1.17Zm-71.18,29.27h-4.53V181.8a2.27,2.27,0,0,1,4.53,0Zm49.87-3.78a49.37,49.37,0,0,1-15.87,3.78A49.71,49.71,0,0,1,146,184.8v-12l15,6.54a2.22,2.22,0,0,0,1.82,0l14.95-6.54Zm-15.87-10-30.61-13.4L161.85,148l30.61,13.39Z"/><path id="Path_28" data-name="Path 28" class="cls-3" d="M208.53,175H189a2.27,2.27,0,0,0,0,4.53h19.5a2.27,2.27,0,0,0,0-4.53Z"/><path id="Path_29" data-name="Path 29" class="cls-3" d="M208.53,184.06H189a2.27,2.27,0,0,0,0,4.53h19.49a2.27,2.27,0,0,0,0-4.53Z"/><circle id="Ellipse_5" data-name="Ellipse 5" class="cls-3" cx="161.84" cy="131.25" r="2.27"/><path id="Path_30" data-name="Path 30" class="cls-3" d="M217.6,129H172a2.27,2.27,0,1,0,0,4.53h43.29v69.37h-107V133.51h43.29a2.27,2.27,0,1,0,0-4.53H106.08a2.27,2.27,0,0,0-2.26,2.27h0v87.49a2.26,2.26,0,0,0,2.26,2.27h44l-3.68,19.49h-7.18a2.27,2.27,0,0,0,0,4.54H184.5a2.27,2.27,0,0,0,0-4.54h-7.18L173.64,221h44a2.27,2.27,0,0,0,2.27-2.27h0V131.25A2.27,2.27,0,0,0,217.6,129ZM151,240.5,154.66,221H169l3.68,19.49Zm64.36-24h-107v-9.07h107Z"/></g></svg>