<svg id="Layer_1" data-name="Layer 1" xmlns="http://www.w3.org/2000/svg" viewBox="0 0 338 384"><defs><style>.cls-1{fill:#8b51a0;}.cls-2,.cls-3{fill:none;}.cls-3{stroke:#4d4d4d;stroke-width:4.94px;}</style></defs><g id="online-learning"><circle id="Ellipse_4" data-name="Ellipse 4" class="cls-1" cx="186.23" cy="263.53" r="2.35"/><path id="Path_27" data-name="Path 27" class="cls-1" d="M224.71,192.64l-37.53-16.42a2.36,2.36,0,0,0-1.88,0l-37.52,16.41a2.39,2.39,0,0,0-1.43,2.16v14.48a7,7,0,0,0-4.69,6.64v9.38a2.35,2.35,0,0,0,2.34,2.35h9.39a2.35,2.35,0,0,0,2.34-2.35v-9.38a7.05,7.05,0,0,0-4.69-6.64V198.38l14.08,6.16V220.6a2.32,2.32,0,0,0,1.39,2.14,59,59,0,0,0,19.72,4.9,59,59,0,0,0,19.72-4.9,2.33,2.33,0,0,0,1.4-2.14V204.54l17.36-7.6a2.35,2.35,0,0,0,0-4.3ZM151,222.93h-4.69v-7a2.35,2.35,0,0,1,4.69,0ZM202.65,219a50.87,50.87,0,0,1-16.42,3.91A51.13,51.13,0,0,1,169.81,219V206.59l15.48,6.78a2.36,2.36,0,0,0,1.88,0l15.48-6.78Zm-16.42-10.37-31.68-13.86,31.69-13.86,31.68,13.86Z"/><path id="Path_28" data-name="Path 28" class="cls-1" d="M234.56,208.87H214.38a2.35,2.35,0,1,0,0,4.69h20.19a2.35,2.35,0,0,0,0-4.69Z"/><path id="Path_29" data-name="Path 29" class="cls-1" d="M234.56,218.25H214.38a2.35,2.35,0,0,0,0,4.69h20.18a2.35,2.35,0,0,0,0-4.69Z"/><circle id="Ellipse_5" data-name="Ellipse 5" class="cls-1" cx="186.23" cy="163.59" r="2.35"/><path id="Path_30" data-name="Path 30" class="cls-1" d="M243.94,161.24H196.78a2.35,2.35,0,0,0,0,4.69h44.81v71.79H130.86V165.93h44.81a2.35,2.35,0,1,0,0-4.69H128.52a2.35,2.35,0,0,0-2.35,2.35h0v90.56a2.35,2.35,0,0,0,2.35,2.34H174l-3.81,20.18h-7.44a2.35,2.35,0,0,0,0,4.69h46.91a2.35,2.35,0,1,0,0-4.69h-7.43l-3.8-20.18h45.49a2.35,2.35,0,0,0,2.35-2.34h0V163.59a2.35,2.35,0,0,0-2.35-2.35ZM175,276.67l3.81-20.18h14.87l3.81,20.18ZM241.6,251.8H130.86v-9.38H241.6Z"/></g><g id="Ellipse_153" data-name="Ellipse 153"><circle class="cls-2" cx="182.89" cy="218.64" r="110.11"/><circle class="cls-3" cx="182.89" cy="218.64" r="107.64"/></g></svg>