<svg id="Layer_1" data-name="Layer 1" xmlns="http://www.w3.org/2000/svg" viewBox="0 0 338 384"><defs><style>.cls-1{fill:#8b51a0;}.cls-2{fill:none;stroke:#4d4d4d;stroke-width:4.89px;}.cls-3{fill:#fff;}</style></defs><g id="Ellipse_294" data-name="Ellipse 294"><circle class="cls-1" cx="168.85" cy="198.21" r="109.15"/><circle class="cls-2" cx="168.85" cy="198.21" r="106.7"/></g><g id="interests"><path id="Path_24" data-name="Path 24" class="cls-3" d="M214.3,237.27l-32.71-12.38V217A31.84,31.84,0,0,0,199,195.31h3.16a8.6,8.6,0,0,0,8.59-8.59v-4.41A8.58,8.58,0,0,0,207.9,176V165.71a2.32,2.32,0,0,0-2.32-2.33H154.84a2.33,2.33,0,0,0,0,4.65h40.28v20.23a27.12,27.12,0,0,1-54.24,0v-20.2H144a2.33,2.33,0,1,0,0-4.65H130.39a2.32,2.32,0,0,0-2.32,2.33h0V176a8.58,8.58,0,0,0-2.82,6.36v4.41a8.6,8.6,0,0,0,8.59,8.59H137A31.86,31.86,0,0,0,154.38,217v7.9L121.67,237.3A21.22,21.22,0,0,0,108,257.05v8.32a2.32,2.32,0,0,0,2.32,2.33h73.91a2.33,2.33,0,1,0,0-4.65H132.73V256a2.33,2.33,0,0,0-4.65,0v7.09h-15.4v-6a16.56,16.56,0,0,1,10.64-15.41l34.21-12.94a2.36,2.36,0,0,0,1.51-2.18v-7.75a31.87,31.87,0,0,0,17.9,0v7.73a2.35,2.35,0,0,0,1.5,2.17l34.21,13A16.56,16.56,0,0,1,223.3,257v6H207.9v-7.07a2.33,2.33,0,0,0-4.65,0h0V263h-8.13a2.33,2.33,0,0,0,0,4.65h30.52a2.32,2.32,0,0,0,2.32-2.32h0V257A21.23,21.23,0,0,0,214.3,237.27Zm-8.23-50.55a3.94,3.94,0,0,1-3.91,3.92h-2.45c.06-.79.09-1.58.09-2.38v-9.89h2.37a4,4,0,0,1,3.92,3.92v4.4Zm-2.82-12.9a8.32,8.32,0,0,0-1.12-.07h-2.37v-5.69h3.49v5.76Zm-70.52-5.76h3.49v5.69h-2.37a8.32,8.32,0,0,0-1.12.07Zm1.12,22.6a4,4,0,0,1-3.92-3.92v-4.4a4,4,0,0,1,3.92-3.92h2.37v9.9c0,.79,0,1.59.09,2.37h-2.45Z"/><path id="Path_25" data-name="Path 25" class="cls-3" d="M189.91,243.6H174.25a2.33,2.33,0,0,0-1,.24L168,246.46l-5.22-2.62a2.37,2.37,0,0,0-1-.24H146.07a2.33,2.33,0,1,0,0,4.65h15.11l5.78,2.89a2.37,2.37,0,0,0,2.08,0l5.77-2.89h15.11a2.33,2.33,0,1,0,0-4.65Z"/><path id="Path_26" data-name="Path 26" class="cls-3" d="M150.19,139.93a2.33,2.33,0,0,0,3.29-3.29h0l-4.79-4.78a10.73,10.73,0,0,1,15.18-15.17l2.5,2.5a2.32,2.32,0,0,0,3.29,0h0l2.51-2.5a10.72,10.72,0,0,1,16.06,14.14,8.66,8.66,0,0,0-5.5,2.17,8.76,8.76,0,0,0-12,12.78l1.32,1.33L168,151.17l-6.8-6.8a2.32,2.32,0,0,0-3.29,3.28h0l8.43,8.45a2.32,2.32,0,0,0,3.29,0h0l5.71-5.71,5.71,5.71a2.32,2.32,0,0,0,3.29,0h0l10.33-10.32a8.77,8.77,0,0,0,0-12.4,8.92,8.92,0,0,0-1.68-1.31,15.37,15.37,0,0,0-24.12-18.66l-.86.86-.86-.86a15.37,15.37,0,0,0-21.74,21.74Zm41.21,2.56-8.68,8.67L174,142.49a4.1,4.1,0,0,1,5.8-5.8l1.23,1.23a2.32,2.32,0,0,0,3.29,0h0l1.24-1.23a4.1,4.1,0,1,1,5.8,5.8Z"/></g></svg>