<svg id="Layer_1" data-name="Layer 1" xmlns="http://www.w3.org/2000/svg" viewBox="0 0 338 384"><defs><style>.cls-1{fill:#8b51a0;}.cls-2,.cls-3{fill:none;}.cls-3{stroke:#4d4d4d;stroke-width:4.44px;}</style></defs><g id="interests"><path id="Path_24" data-name="Path 24" class="cls-1" d="M218.23,246,188.56,234.8v-7.17A28.93,28.93,0,0,0,204.32,208h2.87a7.8,7.8,0,0,0,7.79-7.79v-4a7.81,7.81,0,0,0-2.56-5.78v-9.29a2.11,2.11,0,0,0-2.11-2.11h-46a2.11,2.11,0,0,0,0,4.22h36.53v18.35a24.6,24.6,0,0,1-49.19,0V183.25h2.83a2.11,2.11,0,0,0,0-4.22H142.12a2.1,2.1,0,0,0-2.11,2.11h0v9.29a7.79,7.79,0,0,0-2.56,5.77v4a7.81,7.81,0,0,0,7.79,7.79h2.87a28.93,28.93,0,0,0,15.76,19.67v7.16L134.2,246.05A19.26,19.26,0,0,0,121.82,264v7.54a2.11,2.11,0,0,0,2.11,2.11h67a2.11,2.11,0,1,0,0-4.22H144.24V263a2.11,2.11,0,1,0-4.22,0h0v6.41h-14V264a15,15,0,0,1,9.65-14l31-11.74a2.15,2.15,0,0,0,1.36-2v-7a28.73,28.73,0,0,0,16.23,0v7a2.12,2.12,0,0,0,1.37,2l31,11.75a15,15,0,0,1,9.65,14v5.43h-14V263a2.11,2.11,0,1,0-4.22,0h0v6.41h-7.37a2.11,2.11,0,1,0,0,4.22H228.5a2.1,2.1,0,0,0,2.1-2.11h0v-7.55A19.25,19.25,0,0,0,218.23,246Zm-7.47-45.85a3.58,3.58,0,0,1-3.55,3.55H205c0-.71.08-1.42.08-2.15v-9h2.15a3.56,3.56,0,0,1,3.55,3.55v4Zm-2.56-11.7a8.55,8.55,0,0,0-1-.06H205v-5.16h3.17v5.22Zm-64-5.22h3.17v5.16h-2.16a8.43,8.43,0,0,0-1,.06Zm1,20.5a3.59,3.59,0,0,1-3.55-3.56v-4a3.57,3.57,0,0,1,3.55-3.55h2.16v9c0,.72,0,1.44.08,2.15h-2.22Z"/><path id="Path_25" data-name="Path 25" class="cls-1" d="M196.1,251.76H181.9a2.16,2.16,0,0,0-.94.22l-4.74,2.37L171.48,252a2.16,2.16,0,0,0-.94-.22H156.33a2.11,2.11,0,0,0,0,4.22H170l5.24,2.62a2.16,2.16,0,0,0,1.89,0l5.24-2.62h13.7a2.11,2.11,0,0,0,0-4.22Z"/><path id="Path_26" data-name="Path 26" class="cls-1" d="M160.07,157.73a2.11,2.11,0,1,0,3-3h0l-4.34-4.34a9.73,9.73,0,0,1,13.76-13.76l2.27,2.27a2.11,2.11,0,0,0,3,0h0l2.27-2.27a9.72,9.72,0,0,1,14.57,12.82,7.93,7.93,0,0,0-5,2A7.94,7.94,0,1,0,178.72,163l1.2,1.2-3.69,3.69-6.17-6.17a2.11,2.11,0,0,0-3,3h0l7.65,7.66a2.09,2.09,0,0,0,3,0h0l5.18-5.18,5.18,5.18a2.09,2.09,0,0,0,3,0h0l9.37-9.36a8,8,0,0,0,0-11.25,8.26,8.26,0,0,0-1.52-1.18A13.95,13.95,0,0,0,177,133.68l-.78.78-.78-.78a13.95,13.95,0,0,0-19.72,19.72Zm37.38,2.32-7.87,7.87-7.87-7.87a3.72,3.72,0,0,1,5.26-5.26l1.12,1.12a2.11,2.11,0,0,0,3,0h0l1.12-1.12a3.72,3.72,0,0,1,5.26,5.26Z"/></g><g id="Ellipse_163" data-name="Ellipse 163"><circle class="cls-2" cx="177" cy="210.6" r="99"/><circle class="cls-3" cx="177" cy="210.6" r="96.78"/></g></svg>