<svg id="Layer_1" data-name="Layer 1" xmlns="http://www.w3.org/2000/svg" viewBox="0 0 338 384"><defs><style>.cls-1{fill:#8b51a0;}.cls-2{fill:#fff;}</style></defs><circle id="Ellipse_143" data-name="Ellipse 143" class="cls-1" cx="173.43" cy="207.43" r="111.57"/><g id="personal-profile"><path id="Path_31" data-name="Path 31" class="cls-2" d="M153.75,180.49V174A10.76,10.76,0,0,0,143,163.29h-4.3A10.76,10.76,0,0,0,128,174v6.44a12.89,12.89,0,1,0,25.78.51v-.51Zm-15-12.9H143a6.44,6.44,0,0,1,6.44,6.45h-3.79a5.59,5.59,0,0,1-5-3.11,2.24,2.24,0,0,0-3.85,0l-1,1.92a2.13,2.13,0,0,1-1.92,1.19h-1.65A6.44,6.44,0,0,1,138.71,167.59Zm2.15,21.49a8.6,8.6,0,0,1-8.6-8.6h0v-2.15h1.64A6.39,6.39,0,0,0,139,175.8a9.84,9.84,0,0,0,6.63,2.53h3.79v2.15a8.6,8.6,0,0,1-8.59,8.6Z"/><path id="Path_32" data-name="Path 32" class="cls-2" d="M123.68,223.46h34.37a4.3,4.3,0,0,0,4.3-4.3V208.42a15.05,15.05,0,0,0-15-15H134.42a15.05,15.05,0,0,0-15,15v10.74A4.3,4.3,0,0,0,123.68,223.46Zm34.37-15v10.74H143V211l5.66-13.19A10.72,10.72,0,0,1,158.05,208.42Zm-14-10.75-3.18,7.44-3.19-7.44Zm-20.37,10.75a10.73,10.73,0,0,1,9.39-10.61L138.71,211v8.17h-15Z"/><path id="Path_33" data-name="Path 33" class="cls-2" d="M149.46,208.42h4.3v4.29h-4.3Z"/><path id="Path_34" data-name="Path 34" class="cls-2" d="M211.77,172.78v16.3h4.3v-16.3l2.41,2.4,3-3-6.07-6.08a2.15,2.15,0,0,0-3,0l-6.08,6.08,3,3Z"/><path id="Path_35" data-name="Path 35" class="cls-2" d="M213.92,221.31a2.13,2.13,0,0,0,1.51-.63l6.07-6.08-3-3L216.06,214v-16.3h-4.3V214l-2.41-2.41-3,3,6.08,6.07A2.16,2.16,0,0,0,213.92,221.31Z"/><path id="Path_36" data-name="Path 36" class="cls-2" d="M170.94,167.59h12.9v4.3h-12.9Z"/><path id="Path_37" data-name="Path 37" class="cls-2" d="M170.94,176.18h25.79v4.3H170.94Z"/><path id="Path_38" data-name="Path 38" class="cls-2" d="M170.94,189.08h12.9v4.3h-12.9Z"/><path id="Path_39" data-name="Path 39" class="cls-2" d="M170.94,197.67h25.79V202H170.94Z"/><path id="Path_40" data-name="Path 40" class="cls-2" d="M170.94,210.57h12.9v4.3h-12.9Z"/><path id="Path_41" data-name="Path 41" class="cls-2" d="M170.94,219.16h25.79v4.3H170.94Z"/><path id="Path_42" data-name="Path 42" class="cls-2" d="M188.14,189.08h4.29v4.3h-4.29Z"/><path id="Path_43" data-name="Path 43" class="cls-2" d="M188.14,210.57h8.59v4.3h-8.59Z"/><path id="Path_44" data-name="Path 44" class="cls-2" d="M229,154.7h-116a6.44,6.44,0,0,0-6.45,6.44V242.8a6.46,6.46,0,0,0,6.42,6.47h38.42l-1.61,12.89h-2.4a2.14,2.14,0,0,0-2.14,2.15h0v6.42h-8.61V275h68.77v-4.3h-8.6v-6.45a2.14,2.14,0,0,0-2.14-2.15h-2.41l-1.61-12.86H229a6.45,6.45,0,0,0,6.44-6.45h0V161.14A6.44,6.44,0,0,0,229,154.7Zm-116,4.3H229a2.14,2.14,0,0,1,2.15,2.14h0v66.61H110.78V161.14A2.14,2.14,0,0,1,112.93,159Zm79.5,111.73h-43v-4.3h43Zm-4.58-8.6H154l1.63-12.86h30.59ZM229,244.94h-116a2.14,2.14,0,0,1-2.15-2.14h0V232.05H231.11V242.8A2.15,2.15,0,0,1,229,245h0Z"/><path id="Path_45" data-name="Path 45" class="cls-2" d="M213.92,236.35h8.6v4.3h-8.6Z"/></g></svg>